# xmcd
#
# Track frame offsets: 
#        150
#        12032
#        22265
#        33790
#        44120
#        53685
#        65020
#        75635
#        85665
#        97202
#        108510
#        119237
#        129765
#        139955
#        149485
#        159737
#        170670
#        180860
#        191185
#        203632
#        213092
#        225715
#        238045
#        248057
#        257852
#        268492
#        278470
#
# Disc length: 3845 seconds
#
# Revision: 2
# Processed by: cddbd v1.5.2PL0 Copyright (c) Steve Scherf et al.
# Submitted via: ExactAudioCopyFreeDBPlugin 1.0
#
DISCID=8f0f031b
DTITLE=Various Artist - A Shot in the Dark:  Tennessee Jive - Country
DTITLE=on Nashville Independent Labels, 1945-1955 [Bear Family box se
DTITLE=t]
DYEAR=2000
DGENRE=Country
TTITLE0=Tommy Hill - The Life That I'm Living
TTITLE1=Al Terry - Good Deal Lucille
TTITLE2=Tommy Hill - Say it Now
TTITLE3=Opal Jean - Tennessee Courtin' Time
TTITLE4=Opal Jean - That Done It
TTITLE5=Ernie Chaffin - I'm Gonna Salt My Sugar Away
TTITLE6=Ernie Chaffin - Lonely Wind
TTITLE7=Al Terry - Hey Whattya Say
TTITLE8=Tommy Hill - Honky Tonk Romance
TTITLE9=The McCormack Bros. - C.N.R. Special
TTITLE10=Opal Jean - Part of Your Heart
TTITLE11=Ernie Chaffin - I Can't Lose the Blues
TTITLE12=Ernie Chaffin - Get Me on Your Mind
TTITLE13=Jimmy Collie - I'm Not Giving Up That Easy
TTITLE14=Rusty and Doug - So Lovely Baby
TTITLE15=Rusty and Doug - Why Cry for You
TTITLE16=Wilma Lee and Stoney Cooper - Just for a While
TTITLE17=The McCormack Bros. - Cross My Heart
TTITLE18=Wiley Barkdull - I'll Give My Heart to You
TTITLE19=Rusty and Doug - Look Around (Take a Look at Me)
TTITLE20=Rusty and Doug - Can I Be Dreaming
TTITLE21=Tommy Hill - Mr Juke Box
TTITLE22=Rusty and Doug - Let's Stay Together
TTITLE23=Rusty and Doug - Honey Honey
TTITLE24=Wilma Lee and Stoney Cooper - Row Number Two Seat Number Thre
TTITLE24=e
TTITLE25=Wiley Barkdull - Cause You're Always on My Mind
TTITLE26=The McCormick Bros. - Shuffle and Deal
EXTD=Volume #6 of a 8-CD Box Set -BCD 15854
EXTT0=
EXTT1=
EXTT2=
EXTT3=
EXTT4=
EXTT5=
EXTT6=
EXTT7=
EXTT8=
EXTT9=
EXTT10=
EXTT11=
EXTT12=
EXTT13=
EXTT14=
EXTT15=
EXTT16=
EXTT17=
EXTT18=
EXTT19=
EXTT20=
EXTT21=
EXTT22=
EXTT23=
EXTT24=
EXTT25=
EXTT26=
PLAYORDER=
